<mxfile host="app.diagrams.net" agent="Mozilla/5.0 (Windows NT 10.0; Win64; x64) AppleWebKit/537.36 (KHTML, like Gecko) Chrome/134.0.0.0 Safari/537.36" version="26.1.1">
  <diagram name="Page-1" id="T7DMj8xUObS4rCb962sg">
    <mxGraphModel dx="1290" dy="522" grid="0" gridSize="10" guides="1" tooltips="1" connect="1" arrows="1" fold="1" page="1" pageScale="1" pageWidth="1169" pageHeight="827" math="0" shadow="0">
      <root>
        <mxCell id="0" />
        <mxCell id="1" parent="0" />
        <mxCell id="Gc8bQ2DcOGm53bw4okKY-1" value="SVM1" style="rounded=1;whiteSpace=wrap;html=1;" vertex="1" parent="1">
          <mxGeometry x="323" y="92" width="120" height="60" as="geometry" />
        </mxCell>
        <mxCell id="Gc8bQ2DcOGm53bw4okKY-2" value="SVM2" style="rounded=1;whiteSpace=wrap;html=1;" vertex="1" parent="1">
          <mxGeometry x="323" y="189" width="120" height="60" as="geometry" />
        </mxCell>
        <mxCell id="Gc8bQ2DcOGm53bw4okKY-5" value="Input: x" style="text;html=1;align=center;verticalAlign=middle;resizable=0;points=[];autosize=1;strokeColor=none;fillColor=none;" vertex="1" parent="1">
          <mxGeometry x="172" y="157" width="57" height="26" as="geometry" />
        </mxCell>
        <mxCell id="Gc8bQ2DcOGm53bw4okKY-9" value="" style="endArrow=classic;html=1;rounded=0;" edge="1" parent="1">
          <mxGeometry width="50" height="50" relative="1" as="geometry">
            <mxPoint x="443" y="125" as="sourcePoint" />
            <mxPoint x="499" y="125" as="targetPoint" />
          </mxGeometry>
        </mxCell>
        <mxCell id="Gc8bQ2DcOGm53bw4okKY-10" value="-1 or +1" style="text;html=1;align=center;verticalAlign=middle;resizable=0;points=[];autosize=1;strokeColor=none;fillColor=none;" vertex="1" parent="1">
          <mxGeometry x="504" y="113" width="60" height="26" as="geometry" />
        </mxCell>
        <mxCell id="Gc8bQ2DcOGm53bw4okKY-11" value="" style="endArrow=classic;html=1;rounded=0;" edge="1" parent="1">
          <mxGeometry width="50" height="50" relative="1" as="geometry">
            <mxPoint x="443" y="218" as="sourcePoint" />
            <mxPoint x="499" y="218" as="targetPoint" />
          </mxGeometry>
        </mxCell>
        <mxCell id="Gc8bQ2DcOGm53bw4okKY-12" value="-1 or +1" style="text;html=1;align=center;verticalAlign=middle;resizable=0;points=[];autosize=1;strokeColor=none;fillColor=none;" vertex="1" parent="1">
          <mxGeometry x="504" y="206" width="60" height="26" as="geometry" />
        </mxCell>
        <mxCell id="Gc8bQ2DcOGm53bw4okKY-13" value="" style="group" vertex="1" connectable="0" parent="1">
          <mxGeometry x="236" y="123" width="91" height="93" as="geometry" />
        </mxCell>
        <mxCell id="Gc8bQ2DcOGm53bw4okKY-4" value="" style="endArrow=none;html=1;rounded=0;" edge="1" parent="Gc8bQ2DcOGm53bw4okKY-13">
          <mxGeometry width="50" height="50" relative="1" as="geometry">
            <mxPoint y="46" as="sourcePoint" />
            <mxPoint x="52" y="46" as="targetPoint" />
          </mxGeometry>
        </mxCell>
        <mxCell id="Gc8bQ2DcOGm53bw4okKY-6" value="" style="endArrow=classic;html=1;rounded=0;entryX=0;entryY=0.5;entryDx=0;entryDy=0;" edge="1" parent="Gc8bQ2DcOGm53bw4okKY-13">
          <mxGeometry width="50" height="50" relative="1" as="geometry">
            <mxPoint x="52" y="48" as="sourcePoint" />
            <mxPoint x="90" as="targetPoint" />
            <Array as="points">
              <mxPoint x="52" />
            </Array>
          </mxGeometry>
        </mxCell>
        <mxCell id="Gc8bQ2DcOGm53bw4okKY-7" value="" style="endArrow=classic;html=1;rounded=0;entryX=0;entryY=0.5;entryDx=0;entryDy=0;" edge="1" parent="Gc8bQ2DcOGm53bw4okKY-13">
          <mxGeometry width="50" height="50" relative="1" as="geometry">
            <mxPoint x="52" y="46" as="sourcePoint" />
            <mxPoint x="91" y="93" as="targetPoint" />
            <Array as="points">
              <mxPoint x="52" y="93" />
            </Array>
          </mxGeometry>
        </mxCell>
        <mxCell id="Gc8bQ2DcOGm53bw4okKY-22" value="" style="endArrow=none;html=1;rounded=0;exitX=0.94;exitY=0.5;exitDx=0;exitDy=0;exitPerimeter=0;" edge="1" parent="1" source="Gc8bQ2DcOGm53bw4okKY-10">
          <mxGeometry width="50" height="50" relative="1" as="geometry">
            <mxPoint x="564" y="128" as="sourcePoint" />
            <mxPoint x="617" y="169" as="targetPoint" />
            <Array as="points">
              <mxPoint x="617" y="126" />
            </Array>
          </mxGeometry>
        </mxCell>
        <mxCell id="Gc8bQ2DcOGm53bw4okKY-24" value="" style="endArrow=none;html=1;rounded=0;" edge="1" parent="1">
          <mxGeometry width="50" height="50" relative="1" as="geometry">
            <mxPoint x="564" y="223" as="sourcePoint" />
            <mxPoint x="617" y="167" as="targetPoint" />
            <Array as="points">
              <mxPoint x="617" y="223" />
            </Array>
          </mxGeometry>
        </mxCell>
        <mxCell id="Gc8bQ2DcOGm53bw4okKY-25" value="" style="endArrow=classic;html=1;rounded=0;" edge="1" parent="1">
          <mxGeometry width="50" height="50" relative="1" as="geometry">
            <mxPoint x="617" y="171" as="sourcePoint" />
            <mxPoint x="655" y="171" as="targetPoint" />
          </mxGeometry>
        </mxCell>
        <mxCell id="Gc8bQ2DcOGm53bw4okKY-26" value="Class: 0 or 1 or 2" style="text;html=1;align=center;verticalAlign=middle;resizable=0;points=[];autosize=1;strokeColor=none;fillColor=none;" vertex="1" parent="1">
          <mxGeometry x="655" y="157" width="109" height="26" as="geometry" />
        </mxCell>
      </root>
    </mxGraphModel>
  </diagram>
</mxfile>
